<?xml version="1.0" encoding="utf-8" standalone="no"?>
<!DOCTYPE svg PUBLIC "-//W3C//DTD SVG 1.1//EN"
  "http://www.w3.org/Graphics/SVG/1.1/DTD/svg11.dtd">
<svg xmlns:xlink="http://www.w3.org/1999/xlink" width="851.4pt" height="735.12pt" viewBox="0 0 851.4 735.12" xmlns="http://www.w3.org/2000/svg" version="1.1">
 <metadata>
  <rdf:RDF xmlns:dc="http://purl.org/dc/elements/1.1/" xmlns:cc="http://creativecommons.org/ns#" xmlns:rdf="http://www.w3.org/1999/02/22-rdf-syntax-ns#">
   <cc:Work>
    <dc:type rdf:resource="http://purl.org/dc/dcmitype/StillImage"/>
    <dc:date>2026-03-11T14:36:19.827479</dc:date>
    <dc:format>image/svg+xml</dc:format>
    <dc:creator>
     <cc:Agent>
      <dc:title>Matplotlib v3.10.8, https://matplotlib.org/</dc:title>
     </cc:Agent>
    </dc:creator>
   </cc:Work>
  </rdf:RDF>
 </metadata>
 <defs>
  <style type="text/css">*{stroke-linejoin: round; stroke-linecap: butt}</style>
 </defs>
 <g id="figure_1">
  <g id="patch_1">
   <path d="M 0 735.12 
L 851.4 735.12 
L 851.4 0 
L 0 0 
z
" style="fill: #ffffff"/>
  </g>
  <g id="axes_1">
   <g id="LineCollection_1">
    <path d="M 525.376283 67.840851 
L 469.220631 137.542979 
" clip-path="url(#pd07e975132)" style="fill: none; stroke: #083776; stroke-width: 18"/>
    <path d="M 525.376283 67.840851 
L 581.531936 137.542979 
" clip-path="url(#pd07e975132)" style="fill: none; stroke: #083776; stroke-width: 18"/>
    <path d="M 637.687588 67.840851 
L 581.531936 137.542979 
" clip-path="url(#pd07e975132)" style="fill: none; stroke: #083776; stroke-width: 18"/>
    <path d="M 637.687588 67.840851 
L 693.843241 137.542979 
" clip-path="url(#pd07e975132)" style="fill: none; stroke: #083776; stroke-width: 18"/>
    <path d="M 244.598021 137.542979 
L 188.442368 207.245106 
" clip-path="url(#pd07e975132)" style="fill: none; stroke: #083776; stroke-width: 18"/>
    <path d="M 469.220631 137.542979 
L 413.064978 207.245106 
" clip-path="url(#pd07e975132)" style="fill: none; stroke: #083776; stroke-width: 18"/>
    <path d="M 581.531936 137.542979 
L 525.376283 207.245106 
" clip-path="url(#pd07e975132)" style="fill: none; stroke: #083776; stroke-width: 18"/>
    <path d="M 76.131063 207.245106 
L 132.286716 276.947234 
" clip-path="url(#pd07e975132)" style="fill: none; stroke: #083776; stroke-width: 18"/>
    <path d="M 188.442368 207.245106 
L 244.598021 276.947234 
" clip-path="url(#pd07e975132)" style="fill: none; stroke: #083776; stroke-width: 18"/>
    <path d="M 300.753673 207.245106 
L 356.909326 276.947234 
" clip-path="url(#pd07e975132)" style="fill: none; stroke: #083776; stroke-width: 18"/>
    <path d="M 413.064978 207.245106 
L 356.909326 276.947234 
" clip-path="url(#pd07e975132)" style="fill: none; stroke: #083776; stroke-width: 18"/>
    <path d="M 413.064978 207.245106 
L 469.220631 276.947234 
" clip-path="url(#pd07e975132)" style="fill: none; stroke: #083776; stroke-width: 18"/>
    <path d="M 356.909326 276.947234 
L 300.753673 346.649362 
" clip-path="url(#pd07e975132)" style="fill: none; stroke: #083776; stroke-width: 18"/>
    <path d="M 300.753673 346.649362 
L 356.909326 416.351489 
" clip-path="url(#pd07e975132)" style="fill: none; stroke: #083776; stroke-width: 18"/>
    <path d="M 244.598021 416.351489 
L 188.442368 486.053617 
" clip-path="url(#pd07e975132)" style="fill: none; stroke: #083776; stroke-width: 18"/>
    <path d="M 356.909326 416.351489 
L 300.753673 486.053617 
" clip-path="url(#pd07e975132)" style="fill: none; stroke: #083776; stroke-width: 18"/>
    <path d="M 188.442368 486.053617 
L 244.598021 555.755745 
" clip-path="url(#pd07e975132)" style="fill: none; stroke: #083776; stroke-width: 18"/>
    <path d="M 244.598021 555.755745 
L 188.442368 625.457872 
" clip-path="url(#pd07e975132)" style="fill: none; stroke: #083776; stroke-width: 18"/>
   </g>
   <g id="PathCollection_1">
    <defs>
     <path id="C0_0_6006fa0e66" d="M 0 14.142136 
C 3.750538 14.142136 7.347969 12.652031 10 10 
C 12.652031 7.347969 14.142136 3.750538 14.142136 -0 
C 14.142136 -3.750538 12.652031 -7.347969 10 -10 
C 7.347969 -12.652031 3.750538 -14.142136 0 -14.142136 
C -3.750538 -14.142136 -7.347969 -12.652031 -10 -10 
C -12.652031 -7.347969 -14.142136 -3.750538 -14.142136 0 
C -14.142136 3.750538 -12.652031 7.347969 -10 10 
C -7.347969 12.652031 -3.750538 14.142136 0 14.142136 
z
"/>
    </defs>
    <g clip-path="url(#pd07e975132)">
     <use xlink:href="#C0_0_6006fa0e66" x="188.442368" y="67.840851" style="fill: #083776; stroke: #ffffff"/>
    </g>
    <g clip-path="url(#pd07e975132)">
     <use xlink:href="#C0_0_6006fa0e66" x="300.753673" y="67.840851" style="fill: #083776; stroke: #ffffff"/>
    </g>
    <g clip-path="url(#pd07e975132)">
     <use xlink:href="#C0_0_6006fa0e66" x="413.064978" y="67.840851" style="fill: #083776; stroke: #ffffff"/>
    </g>
    <g clip-path="url(#pd07e975132)">
     <use xlink:href="#C0_0_6006fa0e66" x="525.376283" y="67.840851" style="fill: #083776; stroke: #ffffff"/>
    </g>
    <g clip-path="url(#pd07e975132)">
     <use xlink:href="#C0_0_6006fa0e66" x="637.687588" y="67.840851" style="fill: #083776; stroke: #ffffff"/>
    </g>
    <g clip-path="url(#pd07e975132)">
     <use xlink:href="#C0_0_6006fa0e66" x="132.286716" y="137.542979" style="fill: #083776; stroke: #ffffff"/>
    </g>
    <g clip-path="url(#pd07e975132)">
     <use xlink:href="#C0_0_6006fa0e66" x="244.598021" y="137.542979" style="fill: #083776; stroke: #ffffff"/>
    </g>
    <g clip-path="url(#pd07e975132)">
     <use xlink:href="#C0_0_6006fa0e66" x="469.220631" y="137.542979" style="fill: #083776; stroke: #ffffff"/>
    </g>
    <g clip-path="url(#pd07e975132)">
     <use xlink:href="#C0_0_6006fa0e66" x="581.531936" y="137.542979" style="fill: #083776; stroke: #ffffff"/>
    </g>
    <g clip-path="url(#pd07e975132)">
     <use xlink:href="#C0_0_6006fa0e66" x="693.843241" y="137.542979" style="fill: #083776; stroke: #ffffff"/>
    </g>
    <g clip-path="url(#pd07e975132)">
     <use xlink:href="#C0_0_6006fa0e66" x="76.131063" y="207.245106" style="fill: #083776; stroke: #ffffff"/>
    </g>
    <g clip-path="url(#pd07e975132)">
     <use xlink:href="#C0_0_6006fa0e66" x="188.442368" y="207.245106" style="fill: #083776; stroke: #ffffff"/>
    </g>
    <g clip-path="url(#pd07e975132)">
     <use xlink:href="#C0_0_6006fa0e66" x="300.753673" y="207.245106" style="fill: #083776; stroke: #ffffff"/>
    </g>
    <g clip-path="url(#pd07e975132)">
     <use xlink:href="#C0_0_6006fa0e66" x="413.064978" y="207.245106" style="fill: #083776; stroke: #ffffff"/>
    </g>
    <g clip-path="url(#pd07e975132)">
     <use xlink:href="#C0_0_6006fa0e66" x="525.376283" y="207.245106" style="fill: #083776; stroke: #ffffff"/>
    </g>
    <g clip-path="url(#pd07e975132)">
     <use xlink:href="#C0_0_6006fa0e66" x="637.687588" y="207.245106" style="fill: #083776; stroke: #ffffff"/>
    </g>
    <g clip-path="url(#pd07e975132)">
     <use xlink:href="#C0_0_6006fa0e66" x="749.998893" y="207.245106" style="fill: #083776; stroke: #ffffff"/>
    </g>
    <g clip-path="url(#pd07e975132)">
     <use xlink:href="#C0_0_6006fa0e66" x="132.286716" y="276.947234" style="fill: #083776; stroke: #ffffff"/>
    </g>
    <g clip-path="url(#pd07e975132)">
     <use xlink:href="#C0_0_6006fa0e66" x="244.598021" y="276.947234" style="fill: #083776; stroke: #ffffff"/>
    </g>
    <g clip-path="url(#pd07e975132)">
     <use xlink:href="#C0_0_6006fa0e66" x="356.909326" y="276.947234" style="fill: #083776; stroke: #ffffff"/>
    </g>
    <g clip-path="url(#pd07e975132)">
     <use xlink:href="#C0_0_6006fa0e66" x="469.220631" y="276.947234" style="fill: #083776; stroke: #ffffff"/>
    </g>
    <g clip-path="url(#pd07e975132)">
     <use xlink:href="#C0_0_6006fa0e66" x="693.843241" y="276.947234" style="fill: #083776; stroke: #ffffff"/>
    </g>
    <g clip-path="url(#pd07e975132)">
     <use xlink:href="#C0_0_6006fa0e66" x="806.154545" y="276.947234" style="fill: #083776; stroke: #ffffff"/>
    </g>
    <g clip-path="url(#pd07e975132)">
     <use xlink:href="#C0_0_6006fa0e66" x="76.131063" y="346.649362" style="fill: #083776; stroke: #ffffff"/>
    </g>
    <g clip-path="url(#pd07e975132)">
     <use xlink:href="#C0_0_6006fa0e66" x="188.442368" y="346.649362" style="fill: #083776; stroke: #ffffff"/>
    </g>
    <g clip-path="url(#pd07e975132)">
     <use xlink:href="#C0_0_6006fa0e66" x="300.753673" y="346.649362" style="fill: #083776; stroke: #ffffff"/>
    </g>
    <g clip-path="url(#pd07e975132)">
     <use xlink:href="#C0_0_6006fa0e66" x="413.064978" y="346.649362" style="fill: #083776; stroke: #ffffff"/>
    </g>
    <g clip-path="url(#pd07e975132)">
     <use xlink:href="#C0_0_6006fa0e66" x="637.687588" y="346.649362" style="fill: #083776; stroke: #ffffff"/>
    </g>
    <g clip-path="url(#pd07e975132)">
     <use xlink:href="#C0_0_6006fa0e66" x="749.998893" y="346.649362" style="fill: #083776; stroke: #ffffff"/>
    </g>
    <g clip-path="url(#pd07e975132)">
     <use xlink:href="#C0_0_6006fa0e66" x="132.286716" y="416.351489" style="fill: #083776; stroke: #ffffff"/>
    </g>
    <g clip-path="url(#pd07e975132)">
     <use xlink:href="#C0_0_6006fa0e66" x="244.598021" y="416.351489" style="fill: #083776; stroke: #ffffff"/>
    </g>
    <g clip-path="url(#pd07e975132)">
     <use xlink:href="#C0_0_6006fa0e66" x="356.909326" y="416.351489" style="fill: #083776; stroke: #ffffff"/>
    </g>
    <g clip-path="url(#pd07e975132)">
     <use xlink:href="#C0_0_6006fa0e66" x="469.220631" y="416.351489" style="fill: #083776; stroke: #ffffff"/>
    </g>
    <g clip-path="url(#pd07e975132)">
     <use xlink:href="#C0_0_6006fa0e66" x="581.531936" y="416.351489" style="fill: #083776; stroke: #ffffff"/>
    </g>
    <g clip-path="url(#pd07e975132)">
     <use xlink:href="#C0_0_6006fa0e66" x="693.843241" y="416.351489" style="fill: #083776; stroke: #ffffff"/>
    </g>
    <g clip-path="url(#pd07e975132)">
     <use xlink:href="#C0_0_6006fa0e66" x="806.154545" y="416.351489" style="fill: #083776; stroke: #ffffff"/>
    </g>
    <g clip-path="url(#pd07e975132)">
     <use xlink:href="#C0_0_6006fa0e66" x="76.131063" y="486.053617" style="fill: #083776; stroke: #ffffff"/>
    </g>
    <g clip-path="url(#pd07e975132)">
     <use xlink:href="#C0_0_6006fa0e66" x="188.442368" y="486.053617" style="fill: #083776; stroke: #ffffff"/>
    </g>
    <g clip-path="url(#pd07e975132)">
     <use xlink:href="#C0_0_6006fa0e66" x="300.753673" y="486.053617" style="fill: #083776; stroke: #ffffff"/>
    </g>
    <g clip-path="url(#pd07e975132)">
     <use xlink:href="#C0_0_6006fa0e66" x="413.064978" y="486.053617" style="fill: #083776; stroke: #ffffff"/>
    </g>
    <g clip-path="url(#pd07e975132)">
     <use xlink:href="#C0_0_6006fa0e66" x="525.376283" y="486.053617" style="fill: #083776; stroke: #ffffff"/>
    </g>
    <g clip-path="url(#pd07e975132)">
     <use xlink:href="#C0_0_6006fa0e66" x="637.687588" y="486.053617" style="fill: #083776; stroke: #ffffff"/>
    </g>
    <g clip-path="url(#pd07e975132)">
     <use xlink:href="#C0_0_6006fa0e66" x="749.998893" y="486.053617" style="fill: #083776; stroke: #ffffff"/>
    </g>
    <g clip-path="url(#pd07e975132)">
     <use xlink:href="#C0_0_6006fa0e66" x="132.286716" y="555.755745" style="fill: #083776; stroke: #ffffff"/>
    </g>
    <g clip-path="url(#pd07e975132)">
     <use xlink:href="#C0_0_6006fa0e66" x="244.598021" y="555.755745" style="fill: #083776; stroke: #ffffff"/>
    </g>
    <g clip-path="url(#pd07e975132)">
     <use xlink:href="#C0_0_6006fa0e66" x="356.909326" y="555.755745" style="fill: #083776; stroke: #ffffff"/>
    </g>
    <g clip-path="url(#pd07e975132)">
     <use xlink:href="#C0_0_6006fa0e66" x="469.220631" y="555.755745" style="fill: #083776; stroke: #ffffff"/>
    </g>
    <g clip-path="url(#pd07e975132)">
     <use xlink:href="#C0_0_6006fa0e66" x="581.531936" y="555.755745" style="fill: #083776; stroke: #ffffff"/>
    </g>
    <g clip-path="url(#pd07e975132)">
     <use xlink:href="#C0_0_6006fa0e66" x="693.843241" y="555.755745" style="fill: #083776; stroke: #ffffff"/>
    </g>
    <g clip-path="url(#pd07e975132)">
     <use xlink:href="#C0_0_6006fa0e66" x="806.154545" y="555.755745" style="fill: #083776; stroke: #ffffff"/>
    </g>
    <g clip-path="url(#pd07e975132)">
     <use xlink:href="#C0_0_6006fa0e66" x="76.131063" y="625.457872" style="fill: #083776; stroke: #ffffff"/>
    </g>
    <g clip-path="url(#pd07e975132)">
     <use xlink:href="#C0_0_6006fa0e66" x="188.442368" y="625.457872" style="fill: #083776; stroke: #ffffff"/>
    </g>
    <g clip-path="url(#pd07e975132)">
     <use xlink:href="#C0_0_6006fa0e66" x="300.753673" y="625.457872" style="fill: #083776; stroke: #ffffff"/>
    </g>
    <g clip-path="url(#pd07e975132)">
     <use xlink:href="#C0_0_6006fa0e66" x="413.064978" y="625.457872" style="fill: #083776; stroke: #ffffff"/>
    </g>
    <g clip-path="url(#pd07e975132)">
     <use xlink:href="#C0_0_6006fa0e66" x="525.376283" y="625.457872" style="fill: #083776; stroke: #ffffff"/>
    </g>
    <g clip-path="url(#pd07e975132)">
     <use xlink:href="#C0_0_6006fa0e66" x="749.998893" y="625.457872" style="fill: #083776; stroke: #ffffff"/>
    </g>
    <g clip-path="url(#pd07e975132)">
     <use xlink:href="#C0_0_6006fa0e66" x="132.286716" y="695.16" style="fill: #083776; stroke: #ffffff"/>
    </g>
    <g clip-path="url(#pd07e975132)">
     <use xlink:href="#C0_0_6006fa0e66" x="244.598021" y="695.16" style="fill: #083776; stroke: #ffffff"/>
    </g>
    <g clip-path="url(#pd07e975132)">
     <use xlink:href="#C0_0_6006fa0e66" x="356.909326" y="695.16" style="fill: #083776; stroke: #ffffff"/>
    </g>
    <g clip-path="url(#pd07e975132)">
     <use xlink:href="#C0_0_6006fa0e66" x="469.220631" y="695.16" style="fill: #083776; stroke: #ffffff"/>
    </g>
    <g clip-path="url(#pd07e975132)">
     <use xlink:href="#C0_0_6006fa0e66" x="581.531936" y="695.16" style="fill: #083776; stroke: #ffffff"/>
    </g>
    <g clip-path="url(#pd07e975132)">
     <use xlink:href="#C0_0_6006fa0e66" x="693.843241" y="695.16" style="fill: #083776; stroke: #ffffff"/>
    </g>
   </g>
   <g id="text_1">
    <g clip-path="url(#pd07e975132)">
     <!-- 1 -->
     <g style="fill: #ffffff" transform="translate(185.261118 70.600226) scale(0.1 -0.1)">
      <defs>
       <path id="DejaVuSans-31" d="M 794 531 
L 1825 531 
L 1825 4091 
L 703 3866 
L 703 4441 
L 1819 4666 
L 2450 4666 
L 2450 531 
L 3481 531 
L 3481 0 
L 794 0 
L 794 531 
z
" transform="scale(0.015625)"/>
      </defs>
      <use xlink:href="#DejaVuSans-31"/>
     </g>
    </g>
   </g>
   <g id="text_2">
    <g clip-path="url(#pd07e975132)">
     <!-- 2 -->
     <g style="fill: #ffffff" transform="translate(297.572423 70.600226) scale(0.1 -0.1)">
      <defs>
       <path id="DejaVuSans-32" d="M 1228 531 
L 3431 531 
L 3431 0 
L 469 0 
L 469 531 
Q 828 903 1448 1529 
Q 2069 2156 2228 2338 
Q 2531 2678 2651 2914 
Q 2772 3150 2772 3378 
Q 2772 3750 2511 3984 
Q 2250 4219 1831 4219 
Q 1534 4219 1204 4116 
Q 875 4013 500 3803 
L 500 4441 
Q 881 4594 1212 4672 
Q 1544 4750 1819 4750 
Q 2544 4750 2975 4387 
Q 3406 4025 3406 3419 
Q 3406 3131 3298 2873 
Q 3191 2616 2906 2266 
Q 2828 2175 2409 1742 
Q 1991 1309 1228 531 
z
" transform="scale(0.015625)"/>
      </defs>
      <use xlink:href="#DejaVuSans-32"/>
     </g>
    </g>
   </g>
   <g id="text_3">
    <g clip-path="url(#pd07e975132)">
     <!-- 3 -->
     <g style="fill: #ffffff" transform="translate(409.883728 70.600226) scale(0.1 -0.1)">
      <defs>
       <path id="DejaVuSans-33" d="M 2597 2516 
Q 3050 2419 3304 2112 
Q 3559 1806 3559 1356 
Q 3559 666 3084 287 
Q 2609 -91 1734 -91 
Q 1441 -91 1130 -33 
Q 819 25 488 141 
L 488 750 
Q 750 597 1062 519 
Q 1375 441 1716 441 
Q 2309 441 2620 675 
Q 2931 909 2931 1356 
Q 2931 1769 2642 2001 
Q 2353 2234 1838 2234 
L 1294 2234 
L 1294 2753 
L 1863 2753 
Q 2328 2753 2575 2939 
Q 2822 3125 2822 3475 
Q 2822 3834 2567 4026 
Q 2313 4219 1838 4219 
Q 1578 4219 1281 4162 
Q 984 4106 628 3988 
L 628 4550 
Q 988 4650 1302 4700 
Q 1616 4750 1894 4750 
Q 2613 4750 3031 4423 
Q 3450 4097 3450 3541 
Q 3450 3153 3228 2886 
Q 3006 2619 2597 2516 
z
" transform="scale(0.015625)"/>
      </defs>
      <use xlink:href="#DejaVuSans-33"/>
     </g>
    </g>
   </g>
   <g id="text_4">
    <g clip-path="url(#pd07e975132)">
     <!-- 4 -->
     <g style="fill: #ffffff" transform="translate(522.195033 70.600226) scale(0.1 -0.1)">
      <defs>
       <path id="DejaVuSans-34" d="M 2419 4116 
L 825 1625 
L 2419 1625 
L 2419 4116 
z
M 2253 4666 
L 3047 4666 
L 3047 1625 
L 3713 1625 
L 3713 1100 
L 3047 1100 
L 3047 0 
L 2419 0 
L 2419 1100 
L 313 1100 
L 313 1709 
L 2253 4666 
z
" transform="scale(0.015625)"/>
      </defs>
      <use xlink:href="#DejaVuSans-34"/>
     </g>
    </g>
   </g>
   <g id="text_5">
    <g clip-path="url(#pd07e975132)">
     <!-- 5 -->
     <g style="fill: #ffffff" transform="translate(634.506338 70.600226) scale(0.1 -0.1)">
      <defs>
       <path id="DejaVuSans-35" d="M 691 4666 
L 3169 4666 
L 3169 4134 
L 1269 4134 
L 1269 2991 
Q 1406 3038 1543 3061 
Q 1681 3084 1819 3084 
Q 2600 3084 3056 2656 
Q 3513 2228 3513 1497 
Q 3513 744 3044 326 
Q 2575 -91 1722 -91 
Q 1428 -91 1123 -41 
Q 819 9 494 109 
L 494 744 
Q 775 591 1075 516 
Q 1375 441 1709 441 
Q 2250 441 2565 725 
Q 2881 1009 2881 1497 
Q 2881 1984 2565 2268 
Q 2250 2553 1709 2553 
Q 1456 2553 1204 2497 
Q 953 2441 691 2322 
L 691 4666 
z
" transform="scale(0.015625)"/>
      </defs>
      <use xlink:href="#DejaVuSans-35"/>
     </g>
    </g>
   </g>
   <g id="text_6">
    <g clip-path="url(#pd07e975132)">
     <!-- 7 -->
     <g style="fill: #ffffff" transform="translate(129.105466 140.302354) scale(0.1 -0.1)">
      <defs>
       <path id="DejaVuSans-37" d="M 525 4666 
L 3525 4666 
L 3525 4397 
L 1831 0 
L 1172 0 
L 2766 4134 
L 525 4134 
L 525 4666 
z
" transform="scale(0.015625)"/>
      </defs>
      <use xlink:href="#DejaVuSans-37"/>
     </g>
    </g>
   </g>
   <g id="text_7">
    <g clip-path="url(#pd07e975132)">
     <!-- 8 -->
     <g style="fill: #ffffff" transform="translate(241.416771 140.302354) scale(0.1 -0.1)">
      <defs>
       <path id="DejaVuSans-38" d="M 2034 2216 
Q 1584 2216 1326 1975 
Q 1069 1734 1069 1313 
Q 1069 891 1326 650 
Q 1584 409 2034 409 
Q 2484 409 2743 651 
Q 3003 894 3003 1313 
Q 3003 1734 2745 1975 
Q 2488 2216 2034 2216 
z
M 1403 2484 
Q 997 2584 770 2862 
Q 544 3141 544 3541 
Q 544 4100 942 4425 
Q 1341 4750 2034 4750 
Q 2731 4750 3128 4425 
Q 3525 4100 3525 3541 
Q 3525 3141 3298 2862 
Q 3072 2584 2669 2484 
Q 3125 2378 3379 2068 
Q 3634 1759 3634 1313 
Q 3634 634 3220 271 
Q 2806 -91 2034 -91 
Q 1263 -91 848 271 
Q 434 634 434 1313 
Q 434 1759 690 2068 
Q 947 2378 1403 2484 
z
M 1172 3481 
Q 1172 3119 1398 2916 
Q 1625 2713 2034 2713 
Q 2441 2713 2670 2916 
Q 2900 3119 2900 3481 
Q 2900 3844 2670 4047 
Q 2441 4250 2034 4250 
Q 1625 4250 1398 4047 
Q 1172 3844 1172 3481 
z
" transform="scale(0.015625)"/>
      </defs>
      <use xlink:href="#DejaVuSans-38"/>
     </g>
    </g>
   </g>
   <g id="text_8">
    <g clip-path="url(#pd07e975132)">
     <!-- 10 -->
     <g style="fill: #ffffff" transform="translate(462.858131 140.302354) scale(0.1 -0.1)">
      <defs>
       <path id="DejaVuSans-30" d="M 2034 4250 
Q 1547 4250 1301 3770 
Q 1056 3291 1056 2328 
Q 1056 1369 1301 889 
Q 1547 409 2034 409 
Q 2525 409 2770 889 
Q 3016 1369 3016 2328 
Q 3016 3291 2770 3770 
Q 2525 4250 2034 4250 
z
M 2034 4750 
Q 2819 4750 3233 4129 
Q 3647 3509 3647 2328 
Q 3647 1150 3233 529 
Q 2819 -91 2034 -91 
Q 1250 -91 836 529 
Q 422 1150 422 2328 
Q 422 3509 836 4129 
Q 1250 4750 2034 4750 
z
" transform="scale(0.015625)"/>
      </defs>
      <use xlink:href="#DejaVuSans-31"/>
      <use xlink:href="#DejaVuSans-30" transform="translate(63.623047 0)"/>
     </g>
    </g>
   </g>
   <g id="text_9">
    <g clip-path="url(#pd07e975132)">
     <!-- 11 -->
     <g style="fill: #ffffff" transform="translate(575.169436 140.302354) scale(0.1 -0.1)">
      <use xlink:href="#DejaVuSans-31"/>
      <use xlink:href="#DejaVuSans-31" transform="translate(63.623047 0)"/>
     </g>
    </g>
   </g>
   <g id="text_10">
    <g clip-path="url(#pd07e975132)">
     <!-- 12 -->
     <g style="fill: #ffffff" transform="translate(687.480741 140.302354) scale(0.1 -0.1)">
      <use xlink:href="#DejaVuSans-31"/>
      <use xlink:href="#DejaVuSans-32" transform="translate(63.623047 0)"/>
     </g>
    </g>
   </g>
   <g id="text_11">
    <g clip-path="url(#pd07e975132)">
     <!-- 14 -->
     <g style="fill: #ffffff" transform="translate(69.768563 210.004481) scale(0.1 -0.1)">
      <use xlink:href="#DejaVuSans-31"/>
      <use xlink:href="#DejaVuSans-34" transform="translate(63.623047 0)"/>
     </g>
    </g>
   </g>
   <g id="text_12">
    <g clip-path="url(#pd07e975132)">
     <!-- 15 -->
     <g style="fill: #ffffff" transform="translate(182.079868 210.004481) scale(0.1 -0.1)">
      <use xlink:href="#DejaVuSans-31"/>
      <use xlink:href="#DejaVuSans-35" transform="translate(63.623047 0)"/>
     </g>
    </g>
   </g>
   <g id="text_13">
    <g clip-path="url(#pd07e975132)">
     <!-- 16 -->
     <g style="fill: #ffffff" transform="translate(294.391173 210.004481) scale(0.1 -0.1)">
      <defs>
       <path id="DejaVuSans-36" d="M 2113 2584 
Q 1688 2584 1439 2293 
Q 1191 2003 1191 1497 
Q 1191 994 1439 701 
Q 1688 409 2113 409 
Q 2538 409 2786 701 
Q 3034 994 3034 1497 
Q 3034 2003 2786 2293 
Q 2538 2584 2113 2584 
z
M 3366 4563 
L 3366 3988 
Q 3128 4100 2886 4159 
Q 2644 4219 2406 4219 
Q 1781 4219 1451 3797 
Q 1122 3375 1075 2522 
Q 1259 2794 1537 2939 
Q 1816 3084 2150 3084 
Q 2853 3084 3261 2657 
Q 3669 2231 3669 1497 
Q 3669 778 3244 343 
Q 2819 -91 2113 -91 
Q 1303 -91 875 529 
Q 447 1150 447 2328 
Q 447 3434 972 4092 
Q 1497 4750 2381 4750 
Q 2619 4750 2861 4703 
Q 3103 4656 3366 4563 
z
" transform="scale(0.015625)"/>
      </defs>
      <use xlink:href="#DejaVuSans-31"/>
      <use xlink:href="#DejaVuSans-36" transform="translate(63.623047 0)"/>
     </g>
    </g>
   </g>
   <g id="text_14">
    <g clip-path="url(#pd07e975132)">
     <!-- 17 -->
     <g style="fill: #ffffff" transform="translate(406.702478 210.004481) scale(0.1 -0.1)">
      <use xlink:href="#DejaVuSans-31"/>
      <use xlink:href="#DejaVuSans-37" transform="translate(63.623047 0)"/>
     </g>
    </g>
   </g>
   <g id="text_15">
    <g clip-path="url(#pd07e975132)">
     <!-- 18 -->
     <g style="fill: #ffffff" transform="translate(519.013783 210.004481) scale(0.1 -0.1)">
      <use xlink:href="#DejaVuSans-31"/>
      <use xlink:href="#DejaVuSans-38" transform="translate(63.623047 0)"/>
     </g>
    </g>
   </g>
   <g id="text_16">
    <g clip-path="url(#pd07e975132)">
     <!-- 19 -->
     <g style="fill: #ffffff" transform="translate(631.325088 210.004481) scale(0.1 -0.1)">
      <defs>
       <path id="DejaVuSans-39" d="M 703 97 
L 703 672 
Q 941 559 1184 500 
Q 1428 441 1663 441 
Q 2288 441 2617 861 
Q 2947 1281 2994 2138 
Q 2813 1869 2534 1725 
Q 2256 1581 1919 1581 
Q 1219 1581 811 2004 
Q 403 2428 403 3163 
Q 403 3881 828 4315 
Q 1253 4750 1959 4750 
Q 2769 4750 3195 4129 
Q 3622 3509 3622 2328 
Q 3622 1225 3098 567 
Q 2575 -91 1691 -91 
Q 1453 -91 1209 -44 
Q 966 3 703 97 
z
M 1959 2075 
Q 2384 2075 2632 2365 
Q 2881 2656 2881 3163 
Q 2881 3666 2632 3958 
Q 2384 4250 1959 4250 
Q 1534 4250 1286 3958 
Q 1038 3666 1038 3163 
Q 1038 2656 1286 2365 
Q 1534 2075 1959 2075 
z
" transform="scale(0.015625)"/>
      </defs>
      <use xlink:href="#DejaVuSans-31"/>
      <use xlink:href="#DejaVuSans-39" transform="translate(63.623047 0)"/>
     </g>
    </g>
   </g>
   <g id="text_17">
    <g clip-path="url(#pd07e975132)">
     <!-- 20 -->
     <g style="fill: #ffffff" transform="translate(743.636393 210.004481) scale(0.1 -0.1)">
      <use xlink:href="#DejaVuSans-32"/>
      <use xlink:href="#DejaVuSans-30" transform="translate(63.623047 0)"/>
     </g>
    </g>
   </g>
   <g id="text_18">
    <g clip-path="url(#pd07e975132)">
     <!-- 21 -->
     <g style="fill: #ffffff" transform="translate(125.924216 279.706609) scale(0.1 -0.1)">
      <use xlink:href="#DejaVuSans-32"/>
      <use xlink:href="#DejaVuSans-31" transform="translate(63.623047 0)"/>
     </g>
    </g>
   </g>
   <g id="text_19">
    <g clip-path="url(#pd07e975132)">
     <!-- 22 -->
     <g style="fill: #ffffff" transform="translate(238.235521 279.706609) scale(0.1 -0.1)">
      <use xlink:href="#DejaVuSans-32"/>
      <use xlink:href="#DejaVuSans-32" transform="translate(63.623047 0)"/>
     </g>
    </g>
   </g>
   <g id="text_20">
    <g clip-path="url(#pd07e975132)">
     <!-- 23 -->
     <g style="fill: #ffffff" transform="translate(350.546826 279.706609) scale(0.1 -0.1)">
      <use xlink:href="#DejaVuSans-32"/>
      <use xlink:href="#DejaVuSans-33" transform="translate(63.623047 0)"/>
     </g>
    </g>
   </g>
   <g id="text_21">
    <g clip-path="url(#pd07e975132)">
     <!-- 24 -->
     <g style="fill: #ffffff" transform="translate(462.858131 279.706609) scale(0.1 -0.1)">
      <use xlink:href="#DejaVuSans-32"/>
      <use xlink:href="#DejaVuSans-34" transform="translate(63.623047 0)"/>
     </g>
    </g>
   </g>
   <g id="text_22">
    <g clip-path="url(#pd07e975132)">
     <!-- 26 -->
     <g style="fill: #ffffff" transform="translate(687.480741 279.706609) scale(0.1 -0.1)">
      <use xlink:href="#DejaVuSans-32"/>
      <use xlink:href="#DejaVuSans-36" transform="translate(63.623047 0)"/>
     </g>
    </g>
   </g>
   <g id="text_23">
    <g clip-path="url(#pd07e975132)">
     <!-- 27 -->
     <g style="fill: #ffffff" transform="translate(799.792045 279.706609) scale(0.1 -0.1)">
      <use xlink:href="#DejaVuSans-32"/>
      <use xlink:href="#DejaVuSans-37" transform="translate(63.623047 0)"/>
     </g>
    </g>
   </g>
   <g id="text_24">
    <g clip-path="url(#pd07e975132)">
     <!-- 28 -->
     <g style="fill: #ffffff" transform="translate(69.768563 349.408737) scale(0.1 -0.1)">
      <use xlink:href="#DejaVuSans-32"/>
      <use xlink:href="#DejaVuSans-38" transform="translate(63.623047 0)"/>
     </g>
    </g>
   </g>
   <g id="text_25">
    <g clip-path="url(#pd07e975132)">
     <!-- 29 -->
     <g style="fill: #ffffff" transform="translate(182.079868 349.408737) scale(0.1 -0.1)">
      <use xlink:href="#DejaVuSans-32"/>
      <use xlink:href="#DejaVuSans-39" transform="translate(63.623047 0)"/>
     </g>
    </g>
   </g>
   <g id="text_26">
    <g clip-path="url(#pd07e975132)">
     <!-- 30 -->
     <g style="fill: #ffffff" transform="translate(294.391173 349.408737) scale(0.1 -0.1)">
      <use xlink:href="#DejaVuSans-33"/>
      <use xlink:href="#DejaVuSans-30" transform="translate(63.623047 0)"/>
     </g>
    </g>
   </g>
   <g id="text_27">
    <g clip-path="url(#pd07e975132)">
     <!-- 31 -->
     <g style="fill: #ffffff" transform="translate(406.702478 349.408737) scale(0.1 -0.1)">
      <use xlink:href="#DejaVuSans-33"/>
      <use xlink:href="#DejaVuSans-31" transform="translate(63.623047 0)"/>
     </g>
    </g>
   </g>
   <g id="text_28">
    <g clip-path="url(#pd07e975132)">
     <!-- 33 -->
     <g style="fill: #ffffff" transform="translate(631.325088 349.408737) scale(0.1 -0.1)">
      <use xlink:href="#DejaVuSans-33"/>
      <use xlink:href="#DejaVuSans-33" transform="translate(63.623047 0)"/>
     </g>
    </g>
   </g>
   <g id="text_29">
    <g clip-path="url(#pd07e975132)">
     <!-- 34 -->
     <g style="fill: #ffffff" transform="translate(743.636393 349.408737) scale(0.1 -0.1)">
      <use xlink:href="#DejaVuSans-33"/>
      <use xlink:href="#DejaVuSans-34" transform="translate(63.623047 0)"/>
     </g>
    </g>
   </g>
   <g id="text_30">
    <g clip-path="url(#pd07e975132)">
     <!-- 35 -->
     <g style="fill: #ffffff" transform="translate(125.924216 419.110864) scale(0.1 -0.1)">
      <use xlink:href="#DejaVuSans-33"/>
      <use xlink:href="#DejaVuSans-35" transform="translate(63.623047 0)"/>
     </g>
    </g>
   </g>
   <g id="text_31">
    <g clip-path="url(#pd07e975132)">
     <!-- 36 -->
     <g style="fill: #ffffff" transform="translate(238.235521 419.110864) scale(0.1 -0.1)">
      <use xlink:href="#DejaVuSans-33"/>
      <use xlink:href="#DejaVuSans-36" transform="translate(63.623047 0)"/>
     </g>
    </g>
   </g>
   <g id="text_32">
    <g clip-path="url(#pd07e975132)">
     <!-- 37 -->
     <g style="fill: #ffffff" transform="translate(350.546826 419.110864) scale(0.1 -0.1)">
      <use xlink:href="#DejaVuSans-33"/>
      <use xlink:href="#DejaVuSans-37" transform="translate(63.623047 0)"/>
     </g>
    </g>
   </g>
   <g id="text_33">
    <g clip-path="url(#pd07e975132)">
     <!-- 38 -->
     <g style="fill: #ffffff" transform="translate(462.858131 419.110864) scale(0.1 -0.1)">
      <use xlink:href="#DejaVuSans-33"/>
      <use xlink:href="#DejaVuSans-38" transform="translate(63.623047 0)"/>
     </g>
    </g>
   </g>
   <g id="text_34">
    <g clip-path="url(#pd07e975132)">
     <!-- 39 -->
     <g style="fill: #ffffff" transform="translate(575.169436 419.110864) scale(0.1 -0.1)">
      <use xlink:href="#DejaVuSans-33"/>
      <use xlink:href="#DejaVuSans-39" transform="translate(63.623047 0)"/>
     </g>
    </g>
   </g>
   <g id="text_35">
    <g clip-path="url(#pd07e975132)">
     <!-- 40 -->
     <g style="fill: #ffffff" transform="translate(687.480741 419.110864) scale(0.1 -0.1)">
      <use xlink:href="#DejaVuSans-34"/>
      <use xlink:href="#DejaVuSans-30" transform="translate(63.623047 0)"/>
     </g>
    </g>
   </g>
   <g id="text_36">
    <g clip-path="url(#pd07e975132)">
     <!-- 41 -->
     <g style="fill: #ffffff" transform="translate(799.792045 419.110864) scale(0.1 -0.1)">
      <use xlink:href="#DejaVuSans-34"/>
      <use xlink:href="#DejaVuSans-31" transform="translate(63.623047 0)"/>
     </g>
    </g>
   </g>
   <g id="text_37">
    <g clip-path="url(#pd07e975132)">
     <!-- 42 -->
     <g style="fill: #ffffff" transform="translate(69.768563 488.812992) scale(0.1 -0.1)">
      <use xlink:href="#DejaVuSans-34"/>
      <use xlink:href="#DejaVuSans-32" transform="translate(63.623047 0)"/>
     </g>
    </g>
   </g>
   <g id="text_38">
    <g clip-path="url(#pd07e975132)">
     <!-- 43 -->
     <g style="fill: #ffffff" transform="translate(182.079868 488.812992) scale(0.1 -0.1)">
      <use xlink:href="#DejaVuSans-34"/>
      <use xlink:href="#DejaVuSans-33" transform="translate(63.623047 0)"/>
     </g>
    </g>
   </g>
   <g id="text_39">
    <g clip-path="url(#pd07e975132)">
     <!-- 44 -->
     <g style="fill: #ffffff" transform="translate(294.391173 488.812992) scale(0.1 -0.1)">
      <use xlink:href="#DejaVuSans-34"/>
      <use xlink:href="#DejaVuSans-34" transform="translate(63.623047 0)"/>
     </g>
    </g>
   </g>
   <g id="text_40">
    <g clip-path="url(#pd07e975132)">
     <!-- 45 -->
     <g style="fill: #ffffff" transform="translate(406.702478 488.812992) scale(0.1 -0.1)">
      <use xlink:href="#DejaVuSans-34"/>
      <use xlink:href="#DejaVuSans-35" transform="translate(63.623047 0)"/>
     </g>
    </g>
   </g>
   <g id="text_41">
    <g clip-path="url(#pd07e975132)">
     <!-- 46 -->
     <g style="fill: #ffffff" transform="translate(519.013783 488.812992) scale(0.1 -0.1)">
      <use xlink:href="#DejaVuSans-34"/>
      <use xlink:href="#DejaVuSans-36" transform="translate(63.623047 0)"/>
     </g>
    </g>
   </g>
   <g id="text_42">
    <g clip-path="url(#pd07e975132)">
     <!-- 47 -->
     <g style="fill: #ffffff" transform="translate(631.325088 488.812992) scale(0.1 -0.1)">
      <use xlink:href="#DejaVuSans-34"/>
      <use xlink:href="#DejaVuSans-37" transform="translate(63.623047 0)"/>
     </g>
    </g>
   </g>
   <g id="text_43">
    <g clip-path="url(#pd07e975132)">
     <!-- 48 -->
     <g style="fill: #ffffff" transform="translate(743.636393 488.812992) scale(0.1 -0.1)">
      <use xlink:href="#DejaVuSans-34"/>
      <use xlink:href="#DejaVuSans-38" transform="translate(63.623047 0)"/>
     </g>
    </g>
   </g>
   <g id="text_44">
    <g clip-path="url(#pd07e975132)">
     <!-- 49 -->
     <g style="fill: #ffffff" transform="translate(125.924216 558.51512) scale(0.1 -0.1)">
      <use xlink:href="#DejaVuSans-34"/>
      <use xlink:href="#DejaVuSans-39" transform="translate(63.623047 0)"/>
     </g>
    </g>
   </g>
   <g id="text_45">
    <g clip-path="url(#pd07e975132)">
     <!-- 50 -->
     <g style="fill: #ffffff" transform="translate(238.235521 558.51512) scale(0.1 -0.1)">
      <use xlink:href="#DejaVuSans-35"/>
      <use xlink:href="#DejaVuSans-30" transform="translate(63.623047 0)"/>
     </g>
    </g>
   </g>
   <g id="text_46">
    <g clip-path="url(#pd07e975132)">
     <!-- 51 -->
     <g style="fill: #ffffff" transform="translate(350.546826 558.51512) scale(0.1 -0.1)">
      <use xlink:href="#DejaVuSans-35"/>
      <use xlink:href="#DejaVuSans-31" transform="translate(63.623047 0)"/>
     </g>
    </g>
   </g>
   <g id="text_47">
    <g clip-path="url(#pd07e975132)">
     <!-- 52 -->
     <g style="fill: #ffffff" transform="translate(462.858131 558.51512) scale(0.1 -0.1)">
      <use xlink:href="#DejaVuSans-35"/>
      <use xlink:href="#DejaVuSans-32" transform="translate(63.623047 0)"/>
     </g>
    </g>
   </g>
   <g id="text_48">
    <g clip-path="url(#pd07e975132)">
     <!-- 53 -->
     <g style="fill: #ffffff" transform="translate(575.169436 558.51512) scale(0.1 -0.1)">
      <use xlink:href="#DejaVuSans-35"/>
      <use xlink:href="#DejaVuSans-33" transform="translate(63.623047 0)"/>
     </g>
    </g>
   </g>
   <g id="text_49">
    <g clip-path="url(#pd07e975132)">
     <!-- 54 -->
     <g style="fill: #ffffff" transform="translate(687.480741 558.51512) scale(0.1 -0.1)">
      <use xlink:href="#DejaVuSans-35"/>
      <use xlink:href="#DejaVuSans-34" transform="translate(63.623047 0)"/>
     </g>
    </g>
   </g>
   <g id="text_50">
    <g clip-path="url(#pd07e975132)">
     <!-- 55 -->
     <g style="fill: #ffffff" transform="translate(799.792045 558.51512) scale(0.1 -0.1)">
      <use xlink:href="#DejaVuSans-35"/>
      <use xlink:href="#DejaVuSans-35" transform="translate(63.623047 0)"/>
     </g>
    </g>
   </g>
   <g id="text_51">
    <g clip-path="url(#pd07e975132)">
     <!-- 56 -->
     <g style="fill: #ffffff" transform="translate(69.768563 628.217247) scale(0.1 -0.1)">
      <use xlink:href="#DejaVuSans-35"/>
      <use xlink:href="#DejaVuSans-36" transform="translate(63.623047 0)"/>
     </g>
    </g>
   </g>
   <g id="text_52">
    <g clip-path="url(#pd07e975132)">
     <!-- 57 -->
     <g style="fill: #ffffff" transform="translate(182.079868 628.217247) scale(0.1 -0.1)">
      <use xlink:href="#DejaVuSans-35"/>
      <use xlink:href="#DejaVuSans-37" transform="translate(63.623047 0)"/>
     </g>
    </g>
   </g>
   <g id="text_53">
    <g clip-path="url(#pd07e975132)">
     <!-- 58 -->
     <g style="fill: #ffffff" transform="translate(294.391173 628.217247) scale(0.1 -0.1)">
      <use xlink:href="#DejaVuSans-35"/>
      <use xlink:href="#DejaVuSans-38" transform="translate(63.623047 0)"/>
     </g>
    </g>
   </g>
   <g id="text_54">
    <g clip-path="url(#pd07e975132)">
     <!-- 59 -->
     <g style="fill: #ffffff" transform="translate(406.702478 628.217247) scale(0.1 -0.1)">
      <use xlink:href="#DejaVuSans-35"/>
      <use xlink:href="#DejaVuSans-39" transform="translate(63.623047 0)"/>
     </g>
    </g>
   </g>
   <g id="text_55">
    <g clip-path="url(#pd07e975132)">
     <!-- 60 -->
     <g style="fill: #ffffff" transform="translate(519.013783 628.217247) scale(0.1 -0.1)">
      <use xlink:href="#DejaVuSans-36"/>
      <use xlink:href="#DejaVuSans-30" transform="translate(63.623047 0)"/>
     </g>
    </g>
   </g>
   <g id="text_56">
    <g clip-path="url(#pd07e975132)">
     <!-- 62 -->
     <g style="fill: #ffffff" transform="translate(743.636393 628.217247) scale(0.1 -0.1)">
      <use xlink:href="#DejaVuSans-36"/>
      <use xlink:href="#DejaVuSans-32" transform="translate(63.623047 0)"/>
     </g>
    </g>
   </g>
   <g id="text_57">
    <g clip-path="url(#pd07e975132)">
     <!-- 63 -->
     <g style="fill: #ffffff" transform="translate(125.924216 697.919375) scale(0.1 -0.1)">
      <use xlink:href="#DejaVuSans-36"/>
      <use xlink:href="#DejaVuSans-33" transform="translate(63.623047 0)"/>
     </g>
    </g>
   </g>
   <g id="text_58">
    <g clip-path="url(#pd07e975132)">
     <!-- 64 -->
     <g style="fill: #ffffff" transform="translate(238.235521 697.919375) scale(0.1 -0.1)">
      <use xlink:href="#DejaVuSans-36"/>
      <use xlink:href="#DejaVuSans-34" transform="translate(63.623047 0)"/>
     </g>
    </g>
   </g>
   <g id="text_59">
    <g clip-path="url(#pd07e975132)">
     <!-- 65 -->
     <g style="fill: #ffffff" transform="translate(350.546826 697.919375) scale(0.1 -0.1)">
      <use xlink:href="#DejaVuSans-36"/>
      <use xlink:href="#DejaVuSans-35" transform="translate(63.623047 0)"/>
     </g>
    </g>
   </g>
   <g id="text_60">
    <g clip-path="url(#pd07e975132)">
     <!-- 66 -->
     <g style="fill: #ffffff" transform="translate(462.858131 697.919375) scale(0.1 -0.1)">
      <use xlink:href="#DejaVuSans-36"/>
      <use xlink:href="#DejaVuSans-36" transform="translate(63.623047 0)"/>
     </g>
    </g>
   </g>
   <g id="text_61">
    <g clip-path="url(#pd07e975132)">
     <!-- 67 -->
     <g style="fill: #ffffff" transform="translate(575.169436 697.919375) scale(0.1 -0.1)">
      <use xlink:href="#DejaVuSans-36"/>
      <use xlink:href="#DejaVuSans-37" transform="translate(63.623047 0)"/>
     </g>
    </g>
   </g>
   <g id="text_62">
    <g clip-path="url(#pd07e975132)">
     <!-- 68 -->
     <g style="fill: #ffffff" transform="translate(687.480741 697.919375) scale(0.1 -0.1)">
      <use xlink:href="#DejaVuSans-36"/>
      <use xlink:href="#DejaVuSans-38" transform="translate(63.623047 0)"/>
     </g>
    </g>
   </g>
   <g id="text_63">
    <!-- Dongling -->
    <g transform="translate(363.943125 35.273475) scale(0.24 -0.24)">
     <defs>
      <path id="DejaVuSerif-Bold-44" d="M 2100 378 
L 2534 378 
Q 3266 378 3605 847 
Q 3944 1316 3944 2338 
Q 3944 3353 3606 3820 
Q 3269 4288 2534 4288 
L 2100 4288 
L 2100 378 
z
M 300 0 
L 300 378 
L 897 378 
L 897 4288 
L 300 4288 
L 300 4666 
L 2694 4666 
Q 3950 4666 4615 4066 
Q 5281 3466 5281 2338 
Q 5281 1203 4614 601 
Q 3947 0 2694 0 
L 300 0 
z
" transform="scale(0.015625)"/>
      <path id="DejaVuSerif-Bold-6f" d="M 2138 263 
Q 2488 263 2630 563 
Q 2772 863 2772 1663 
Q 2772 2463 2631 2761 
Q 2491 3059 2138 3059 
Q 1784 3059 1640 2757 
Q 1497 2456 1497 1663 
Q 1497 869 1640 566 
Q 1784 263 2138 263 
z
M 2138 -91 
Q 1259 -91 761 376 
Q 263 844 263 1663 
Q 263 2484 761 2948 
Q 1259 3413 2138 3413 
Q 3019 3413 3516 2948 
Q 4013 2484 4013 1663 
Q 4013 844 3514 376 
Q 3016 -91 2138 -91 
z
" transform="scale(0.015625)"/>
      <path id="DejaVuSerif-Bold-6e" d="M 219 0 
L 219 378 
L 691 378 
L 691 2944 
L 219 2944 
L 219 3322 
L 1797 3322 
L 1797 2853 
Q 1997 3150 2253 3281 
Q 2509 3413 2900 3413 
Q 3459 3413 3745 3083 
Q 4031 2753 4031 2113 
L 4031 378 
L 4506 378 
L 4506 0 
L 2522 0 
L 2522 378 
L 2925 378 
L 2925 2144 
Q 2925 2566 2817 2730 
Q 2709 2894 2444 2894 
Q 2109 2894 1953 2648 
Q 1797 2403 1797 1869 
L 1797 378 
L 2203 378 
L 2203 0 
L 219 0 
z
" transform="scale(0.015625)"/>
      <path id="DejaVuSerif-Bold-67" d="M 3853 2944 
L 3853 44 
Q 3853 -656 3354 -1039 
Q 2856 -1422 1947 -1422 
Q 1616 -1422 1275 -1370 
Q 934 -1319 575 -1216 
L 575 -422 
L 928 -422 
Q 975 -750 1192 -909 
Q 1409 -1069 1813 -1069 
Q 2325 -1069 2536 -823 
Q 2747 -578 2747 44 
L 2747 422 
Q 2606 163 2367 36 
Q 2128 -91 1778 -91 
Q 1072 -91 667 378 
Q 263 847 263 1663 
Q 263 2481 667 2947 
Q 1072 3413 1778 3413 
Q 2128 3413 2367 3286 
Q 2606 3159 2747 2900 
L 2747 3322 
L 4325 3322 
L 4325 2944 
L 3853 2944 
z
M 2747 1825 
Q 2747 2406 2597 2665 
Q 2447 2925 2119 2925 
Q 1775 2925 1636 2651 
Q 1497 2378 1497 1663 
Q 1497 947 1637 672 
Q 1778 397 2119 397 
Q 2447 397 2597 656 
Q 2747 916 2747 1497 
L 2747 1825 
z
" transform="scale(0.015625)"/>
      <path id="DejaVuSerif-Bold-6c" d="M 1797 378 
L 2272 378 
L 2272 0 
L 219 0 
L 219 378 
L 691 378 
L 691 4488 
L 219 4488 
L 219 4863 
L 1797 4863 
L 1797 378 
z
" transform="scale(0.015625)"/>
      <path id="DejaVuSerif-Bold-69" d="M 588 4263 
Q 588 4516 763 4689 
Q 938 4863 1191 4863 
Q 1438 4863 1611 4689 
Q 1784 4516 1784 4263 
Q 1784 4016 1611 3842 
Q 1438 3669 1191 3669 
Q 938 3669 763 3841 
Q 588 4013 588 4263 
z
M 1797 378 
L 2272 378 
L 2272 0 
L 219 0 
L 219 378 
L 691 378 
L 691 2944 
L 219 2944 
L 219 3322 
L 1797 3322 
L 1797 378 
z
" transform="scale(0.015625)"/>
     </defs>
     <use xlink:href="#DejaVuSerif-Bold-44"/>
     <use xlink:href="#DejaVuSerif-Bold-6f" transform="translate(86.71875 0)"/>
     <use xlink:href="#DejaVuSerif-Bold-6e" transform="translate(153.417969 0)"/>
     <use xlink:href="#DejaVuSerif-Bold-67" transform="translate(226.123047 0)"/>
     <use xlink:href="#DejaVuSerif-Bold-6c" transform="translate(296.044922 0)"/>
     <use xlink:href="#DejaVuSerif-Bold-69" transform="translate(334.033203 0)"/>
     <use xlink:href="#DejaVuSerif-Bold-6e" transform="translate(372.021484 0)"/>
     <use xlink:href="#DejaVuSerif-Bold-67" transform="translate(444.726562 0)"/>
    </g>
   </g>
  </g>
 </g>
 <defs>
  <clipPath id="pd07e975132">
   <rect x="7.2" y="7.2" width="837" height="720.72"/>
  </clipPath>
 </defs>
</svg>
